<?xml version="1.0" encoding="UTF-8" standalone="no"?>
<svg
   viewBox="0 0 188 300"
   version="1.1"
   id="svg1"
   sodipodi:docname="person-solid.svg"
   width="188"
   height="300"
   inkscape:version="1.3.2 (091e20e, 2023-11-25, custom)"
   xmlns:inkscape="http://www.inkscape.org/namespaces/inkscape"
   xmlns:sodipodi="http://sodipodi.sourceforge.net/DTD/sodipodi-0.dtd"
   xmlns="http://www.w3.org/2000/svg"
   xmlns:svg="http://www.w3.org/2000/svg">
  <defs
     id="defs1" />
  <sodipodi:namedview
     id="namedview1"
     pagecolor="#505050"
     bordercolor="#ffffff"
     borderopacity="1"
     inkscape:showpageshadow="0"
     inkscape:pageopacity="0"
     inkscape:pagecheckerboard="1"
     inkscape:deskcolor="#505050"
     inkscape:zoom="1.037182"
     inkscape:cx="214.52358"
     inkscape:cy="263.69528"
     inkscape:window-width="1920"
     inkscape:window-height="986"
     inkscape:window-x="-11"
     inkscape:window-y="-11"
     inkscape:window-maximized="1"
     inkscape:current-layer="svg1" />
  <!--!Font Awesome Free 6.7.2 by @fontawesome - https://fontawesome.com License - https://fontawesome.com/license/free Copyright 2025 Fonticons, Inc.-->
  <path
     d="m 65.775249,28.133314 a 28.195387,28.12414 0 1 1 56.390771,0 28.195387,28.12414 0 1 1 -56.390771,0 z M 89.271401,206.25288 v 74.9977 C 89.271401,291.62136 80.871525,300 70.474479,300 60.077427,300 51.677549,291.62136 51.677549,281.25058 V 150.53192 l -16.799751,27.88977 c -5.345376,8.84739 -16.917232,11.7184 -25.7870315,6.38653 C 0.2209679,179.47635 -2.6573111,167.93373 2.6880643,159.08635 L 36.933712,102.25215 C 47.154539,85.319068 65.481546,74.948294 85.277053,74.948294 h 17.445897 c 19.79551,0 38.12251,10.370774 48.34333,27.303856 l 34.24566,56.8342 c 5.34537,8.84738 2.4671,20.39 -6.40271,25.72187 -8.8698,5.33187 -20.44165,2.46086 -25.78703,-6.38653 l -16.85849,-27.88977 v 130.71866 c 0,10.37078 -8.39987,18.74942 -18.79692,18.74942 -10.39705,0 -18.796929,-8.37864 -18.796929,-18.74942 v -74.9977 z"
     id="path1"
     style="stroke-width:0.586661" />
</svg>
