<?xml version="1.0" encoding="UTF-8" standalone="no"?>
<svg
   viewBox="0 0 50 79.787521"
   version="1.1"
   id="svg1"
   sodipodi:docname="person-solid.svg"
   width="50"
   height="79.787521"
   inkscape:version="1.3.2 (091e20e, 2023-11-25, custom)"
   xmlns:inkscape="http://www.inkscape.org/namespaces/inkscape"
   xmlns:sodipodi="http://sodipodi.sourceforge.net/DTD/sodipodi-0.dtd"
   xmlns="http://www.w3.org/2000/svg"
   xmlns:svg="http://www.w3.org/2000/svg">
  <defs
     id="defs1" />
  <sodipodi:namedview
     id="namedview1"
     pagecolor="#505050"
     bordercolor="#ffffff"
     borderopacity="1"
     inkscape:showpageshadow="0"
     inkscape:pageopacity="0"
     inkscape:pagecheckerboard="1"
     inkscape:deskcolor="#505050"
     inkscape:zoom="1.037182"
     inkscape:cx="214.52358"
     inkscape:cy="263.69528"
     inkscape:window-width="1920"
     inkscape:window-height="986"
     inkscape:window-x="-11"
     inkscape:window-y="-11"
     inkscape:window-maximized="1"
     inkscape:current-layer="svg1" />
  <!--!Font Awesome Free 6.7.2 by @fontawesome - https://fontawesome.com License - https://fontawesome.com/license/free Copyright 2025 Fonticons, Inc.-->
  <path
     d="m 17.493417,7.4825559 a 7.498773,7.4798244 0 1 1 14.997545,0 7.498773,7.4798244 0 1 1 -14.997545,0 z M 23.742394,54.85478 v 19.946196 c 0,2.758186 -2.23401,4.986548 -4.999182,4.986548 -2.765173,0 -4.999183,-2.228362 -4.999183,-4.986548 v -34.7656 L 9.27601,47.452868 C 7.8543675,49.805897 4.7767462,50.569463 2.417757,49.151413 0.05876806,47.733362 -0.70673167,44.663517 0.71491071,42.31049 L 9.8227956,27.195012 c 2.7183054,-4.50348 7.5925094,-7.261664 12.8572714,-7.261664 h 4.639866 c 5.264763,0 10.138965,2.758184 12.857269,7.261664 L 49.28509,42.31049 c 1.421641,2.353027 0.656143,5.422872 -1.702849,6.840923 -2.358989,1.41805 -5.436609,0.654484 -6.858252,-1.698545 l -4.483641,-7.417492 v 34.7656 c 0,2.758186 -2.234008,4.986548 -4.999181,4.986548 -2.765173,0 -4.999183,-2.228362 -4.999183,-4.986548 V 54.85478 Z"
     id="path1"
     style="stroke-width:0.156027" />
</svg>
