<?xml version="1.0" encoding="UTF-8" standalone="no"?>
<!-- Created with Inkscape (http://www.inkscape.org/) -->

<svg
   width="5000"
   height="30000"
   viewBox="0 0 1322.9167 7937.5001"
   version="1.1"
   id="svg1"
   inkscape:version="1.3.2 (091e20e, 2023-11-25, custom)"
   sodipodi:docname="person-super-narrow.svg"
   xmlns:inkscape="http://www.inkscape.org/namespaces/inkscape"
   xmlns:sodipodi="http://sodipodi.sourceforge.net/DTD/sodipodi-0.dtd"
   xmlns="http://www.w3.org/2000/svg"
   xmlns:svg="http://www.w3.org/2000/svg">
  <sodipodi:namedview
     id="namedview1"
     pagecolor="#505050"
     bordercolor="#ffffff"
     borderopacity="1"
     inkscape:showpageshadow="0"
     inkscape:pageopacity="0"
     inkscape:pagecheckerboard="1"
     inkscape:deskcolor="#505050"
     inkscape:document-units="px"
     inkscape:zoom="0.01"
     inkscape:cx="-13250"
     inkscape:cy="14650"
     inkscape:window-width="1920"
     inkscape:window-height="986"
     inkscape:window-x="-11"
     inkscape:window-y="-11"
     inkscape:window-maximized="1"
     inkscape:current-layer="layer1" />
  <defs
     id="defs1" />
  <g
     inkscape:label="Layer 1"
     inkscape:groupmode="layer"
     id="layer1">
    <path
       id="path1"
       style="fill-opacity:1;stroke:none;stroke-width:34.6504"
       d="M 661.45833,0 A 463.02038,926.04233 0 0 0 198.43886,926.0405 463.02038,926.04233 0 0 0 661.45833,1852.081 463.02038,926.04233 0 0 0 1124.4778,926.0405 463.02038,926.04233 0 0 0 661.45833,0 Z M 192.8057,2140.0014 C 85.992383,2140.0014 0,2336.9073 0,2581.494 v 2556.6096 c 0,244.5866 85.992383,441.4926 192.8057,441.4926 h 137.92347 v 2093.3227 c 0,146.579 59.00084,264.581 132.29029,264.581 h 396.8777 c 73.28943,0 132.29029,-118.002 132.29029,-264.581 V 5579.5962 h 137.92345 c 106.8134,0 192.8058,-196.906 192.8058,-441.4926 V 2581.494 c 0,-244.5867 -85.9924,-441.4926 -192.8058,-441.4926 z" />
  </g>
</svg>
