<?xml version="1.0" encoding="UTF-8" standalone="no"?>
<!-- Created with Inkscape (http://www.inkscape.org/) -->

<svg
   width="50mm"
   height="299.99979mm"
   viewBox="0 0 50 299.99979"
   version="1.1"
   id="svg1"
   inkscape:version="1.3.2 (091e20e, 2023-11-25, custom)"
   sodipodi:docname="super-skinny-person.svg"
   xmlns:inkscape="http://www.inkscape.org/namespaces/inkscape"
   xmlns:sodipodi="http://sodipodi.sourceforge.net/DTD/sodipodi-0.dtd"
   xmlns="http://www.w3.org/2000/svg"
   xmlns:svg="http://www.w3.org/2000/svg">
  <sodipodi:namedview
     id="namedview1"
     pagecolor="#505050"
     bordercolor="#ffffff"
     borderopacity="1"
     inkscape:showpageshadow="0"
     inkscape:pageopacity="0"
     inkscape:pagecheckerboard="1"
     inkscape:deskcolor="#505050"
     inkscape:document-units="mm"
     inkscape:zoom="0.66903058"
     inkscape:cx="396.0955"
     inkscape:cy="549.30225"
     inkscape:window-width="1920"
     inkscape:window-height="986"
     inkscape:window-x="-11"
     inkscape:window-y="-11"
     inkscape:window-maximized="1"
     inkscape:current-layer="layer1" />
  <defs
     id="defs1" />
  <g
     inkscape:label="Layer 1"
     inkscape:groupmode="layer"
     id="layer1">
    <path
       id="path1"
       style="fill-opacity:1;stroke:none;stroke-width:1.30962"
       d="M 25,0 A 17.499983,35 0 0 0 7.5000515,34.999931 17.499983,35 0 0 0 25,69.999862 17.499983,35 0 0 0 42.499948,34.999931 17.499983,35 0 0 0 25,0 Z M 7.2871447,80.881885 C 3.2501059,80.881885 0,88.323992 0,97.568205 V 194.1959 c 0,9.24421 3.2501059,16.68632 7.2871447,16.68632 H 12.5 v 79.11765 c 0,5.53999 2.229953,9.99991 4.999948,9.99991 h 15.000103 c 2.769994,0 4.999948,-4.45992 4.999948,-9.99991 v -79.11765 h 5.212855 C 46.749893,210.88222 50,203.44011 50,194.1959 V 97.568205 c 0,-9.244213 -3.250107,-16.68632 -7.287146,-16.68632 z" />
  </g>
</svg>
