<?xml version="1.0" encoding="UTF-8" standalone="no"?>
<svg
   viewBox="0 0 188 300"
   version="1.1"
   id="svg1"
   sodipodi:docname="person-dress-solid.svg"
   width="188"
   height="300"
   inkscape:version="1.3.2 (091e20e, 2023-11-25, custom)"
   xmlns:inkscape="http://www.inkscape.org/namespaces/inkscape"
   xmlns:sodipodi="http://sodipodi.sourceforge.net/DTD/sodipodi-0.dtd"
   xmlns="http://www.w3.org/2000/svg"
   xmlns:svg="http://www.w3.org/2000/svg">
  <defs
     id="defs1" />
  <sodipodi:namedview
     id="namedview1"
     pagecolor="#505050"
     bordercolor="#ffffff"
     borderopacity="1"
     inkscape:showpageshadow="0"
     inkscape:pageopacity="0"
     inkscape:pagecheckerboard="1"
     inkscape:deskcolor="#505050"
     inkscape:zoom="0.85871012"
     inkscape:cx="425.6384"
     inkscape:cy="410.49941"
     inkscape:window-width="1920"
     inkscape:window-height="986"
     inkscape:window-x="-11"
     inkscape:window-y="-11"
     inkscape:window-maximized="1"
     inkscape:current-layer="svg1" />
  <!--!Font Awesome Free 6.7.2 by @fontawesome - https://fontawesome.com License - https://fontawesome.com/license/free Copyright 2025 Fonticons, Inc.-->
  <path
     d="m 93.999999,0 a 28.204203,28.125 0 1 1 0,56.250001 28.204203,28.125 0 1 1 0,-56.250001 z M 51.6937,225 H 41.234643 c -6.404703,0 -10.929127,-6.26953 -8.931329,-12.36328 l 22.5046,-67.26562 -19.919216,33.04687 c -5.347046,8.84766 -16.922519,11.71875 -25.7950898,6.38672 -8.87257121,-5.33203 -11.7517499,-16.875 -6.4047038,-25.72266 L 34.183593,106.81641 C 46.111619,87.070318 67.499802,75 90.591994,75 h 6.816016 c 23.09218,0 44.48037,12.070318 56.4084,31.81641 l 31.49468,52.26562 c 5.34705,8.84766 2.46787,20.39063 -6.4047,25.72266 -8.87257,5.33203 -20.44805,2.46094 -25.79509,-6.38672 l -19.91922,-32.98828 22.50461,67.20703 C 157.75324,218.73047 153.17006,225 146.76535,225 H 136.3063 v 56.25 c 0,10.37109 -8.4025,18.75 -18.8028,18.75 -10.4003,0 -18.802802,-8.37891 -18.802802,-18.75 V 225 H 89.2993 v 56.25 C 89.2993,291.62109 80.896799,300 70.496504,300 60.096203,300 51.6937,291.62109 51.6937,281.25 Z"
     id="path1"
     style="stroke-width:0.586759" />
</svg>
