<?xml version="1.0" encoding="UTF-8" standalone="no"?>
<svg
   viewBox="0 0 3200.52 5120.1328"
   version="1.1"
   id="svg1"
   sodipodi:docname="person-solid.svg"
   width="3200.52"
   height="5120.1328"
   inkscape:version="1.3.2 (091e20e, 2023-11-25, custom)"
   xmlns:inkscape="http://www.inkscape.org/namespaces/inkscape"
   xmlns:sodipodi="http://sodipodi.sourceforge.net/DTD/sodipodi-0.dtd"
   xmlns="http://www.w3.org/2000/svg"
   xmlns:svg="http://www.w3.org/2000/svg">
  <defs
     id="defs1" />
  <sodipodi:namedview
     id="namedview1"
     pagecolor="#505050"
     bordercolor="#ffffff"
     borderopacity="1"
     inkscape:showpageshadow="0"
     inkscape:pageopacity="0"
     inkscape:pagecheckerboard="1"
     inkscape:deskcolor="#505050"
     inkscape:zoom="0.045837402"
     inkscape:cx="3850.5672"
     inkscape:cy="2737.9387"
     inkscape:window-width="1920"
     inkscape:window-height="986"
     inkscape:window-x="-11"
     inkscape:window-y="-11"
     inkscape:window-maximized="1"
     inkscape:current-layer="svg1" />
  <!--!Font Awesome Free 6.7.2 by @fontawesome - https://fontawesome.com License - https://fontawesome.com/license/free Copyright 2025 Fonticons, Inc.-->
  <path
     d="m 1119.7606,480.13803 a 479.99947,479.99947 0 1 1 959.9989,0 479.99947,479.99947 0 1 1 -959.9989,0 z m 399.9995,3039.99667 v 1279.9986 c 0,176.9998 -142.9998,319.9996 -319.9996,319.9996 -176.9998,0 -319.9997,-142.9998 -319.9997,-319.9996 V 2569.1358 L 593.76112,3045.1352 C 502.76122,3196.1351 305.76144,3245.135 154.7616,3154.1351 3.7617674,3063.1352 -45.238179,2866.1354 45.761721,2715.1356 L 628.76108,1745.1367 C 802.76089,1456.137 1114.7606,1279.1372 1451.7602,1279.1372 h 296.9997 c 336.9996,0 648.9992,176.9998 822.999,465.9995 l 582.9994,969.9989 c 90.9999,150.9998 42,347.9996 -108.9999,438.9995 -150.9998,90.9999 -347.9996,42 -438.9995,-108.9999 l -286.9997,-475.9994 v 2230.9975 c 0,176.9998 -142.9998,319.9996 -319.9996,319.9996 -176.9998,0 -319.9997,-142.9998 -319.9997,-319.9996 V 3520.1347 Z"
     id="path1"
     style="stroke-width:9.99999" />
</svg>
