<?xml version="1.0" encoding="UTF-8" standalone="no"?>
<!-- Created with Inkscape (http://www.inkscape.org/) -->

<svg
   width="50"
   height="150"
   viewBox="0 0 13.229166 39.6875"
   version="1.1"
   id="svg1"
   inkscape:version="1.3.2 (091e20e, 2023-11-25, custom)"
   sodipodi:docname="person-narrow.svg"
   xmlns:inkscape="http://www.inkscape.org/namespaces/inkscape"
   xmlns:sodipodi="http://sodipodi.sourceforge.net/DTD/sodipodi-0.dtd"
   xmlns="http://www.w3.org/2000/svg"
   xmlns:svg="http://www.w3.org/2000/svg">
  <sodipodi:namedview
     id="namedview1"
     pagecolor="#505050"
     bordercolor="#ffffff"
     borderopacity="1"
     inkscape:showpageshadow="0"
     inkscape:pageopacity="0"
     inkscape:pagecheckerboard="1"
     inkscape:deskcolor="#505050"
     inkscape:document-units="px"
     inkscape:zoom="0.66903058"
     inkscape:cx="396.84285"
     inkscape:cy="549.30225"
     inkscape:window-width="1920"
     inkscape:window-height="986"
     inkscape:window-x="-11"
     inkscape:window-y="-11"
     inkscape:window-maximized="1"
     inkscape:current-layer="layer1" />
  <defs
     id="defs1" />
  <g
     inkscape:label="Layer 1"
     inkscape:groupmode="layer"
     id="layer1">
    <path
       id="path1"
       style="fill-opacity:1;stroke:none;stroke-width:0.245015"
       d="M 6.614583,0 A 4.6302038,4.6302117 0 0 0 1.9843887,4.6302025 4.6302038,4.6302117 0 0 0 6.614583,9.2604051 4.6302038,4.6302117 0 0 0 11.244778,4.6302025 4.6302038,4.6302117 0 0 0 6.614583,0 Z M 1.9280571,10.700007 C 0.85992386,10.700007 0,11.684537 0,12.90747 v 12.783048 c 0,1.222933 0.85992386,2.207463 1.9280571,2.207463 h 1.3792345 v 10.466614 c 0,0.732895 0.5900086,1.322905 1.3229031,1.322905 h 3.9687774 c 0.732894,0 1.3229025,-0.59001 1.3229025,-1.322905 V 27.897981 h 1.3792344 c 1.068134,0 1.928058,-0.98453 1.928058,-2.207463 V 12.90747 c 0,-1.222933 -0.859924,-2.207463 -1.928058,-2.207463 z" />
  </g>
</svg>
