<?xml version="1.0" encoding="UTF-8" standalone="no"?>
<!-- Created with Inkscape (http://www.inkscape.org/) -->

<svg
   width="50"
   height="300"
   viewBox="0 0 13.229167 79.375001"
   version="1.1"
   id="svg1"
   inkscape:version="1.3.2 (091e20e, 2023-11-25, custom)"
   sodipodi:docname="person-super-narrow.svg"
   xmlns:inkscape="http://www.inkscape.org/namespaces/inkscape"
   xmlns:sodipodi="http://sodipodi.sourceforge.net/DTD/sodipodi-0.dtd"
   xmlns="http://www.w3.org/2000/svg"
   xmlns:svg="http://www.w3.org/2000/svg">
  <sodipodi:namedview
     id="namedview1"
     pagecolor="#505050"
     bordercolor="#ffffff"
     borderopacity="1"
     inkscape:showpageshadow="0"
     inkscape:pageopacity="0"
     inkscape:pagecheckerboard="1"
     inkscape:deskcolor="#505050"
     inkscape:document-units="mm"
     inkscape:zoom="0.66903058"
     inkscape:cx="396.0955"
     inkscape:cy="549.30225"
     inkscape:window-width="1920"
     inkscape:window-height="986"
     inkscape:window-x="-11"
     inkscape:window-y="-11"
     inkscape:window-maximized="1"
     inkscape:current-layer="layer1" />
  <defs
     id="defs1" />
  <g
     inkscape:label="Layer 1"
     inkscape:groupmode="layer"
     id="layer1">
    <path
       id="path1"
       style="fill-opacity:1;stroke:none;stroke-width:0.346504"
       d="M 6.6145833,0 A 4.6302038,9.2604235 0 0 0 1.9843886,9.2604052 4.6302038,9.2604235 0 0 0 6.6145833,18.52081 4.6302038,9.2604235 0 0 0 11.244778,9.2604052 4.6302038,9.2604235 0 0 0 6.6145833,0 Z M 1.928057,21.400014 C 0.85992385,21.400014 0,23.369073 0,25.81494 v 25.566096 c 0,2.445866 0.85992385,4.414926 1.928057,4.414926 h 1.3792347 v 20.933227 c 0,1.46579 0.5900084,2.645811 1.3229029,2.645811 h 3.9687772 c 0.7328943,0 1.3229029,-1.180021 1.3229029,-2.645811 V 55.795962 h 1.3792343 c 1.068134,0 1.928058,-1.96906 1.928058,-4.414926 V 25.81494 c 0,-2.445867 -0.859924,-4.414926 -1.928058,-4.414926 z" />
  </g>
</svg>
