<?xml version="1.0" encoding="UTF-8" standalone="no"?>
<!-- Created with Inkscape (http://www.inkscape.org/) -->

<svg
   width="1000"
   height="3000"
   viewBox="0 0 264.58333 793.75"
   version="1.1"
   id="svg1"
   inkscape:version="1.3.2 (091e20e, 2023-11-25, custom)"
   sodipodi:docname="person-narrow.svg"
   xmlns:inkscape="http://www.inkscape.org/namespaces/inkscape"
   xmlns:sodipodi="http://sodipodi.sourceforge.net/DTD/sodipodi-0.dtd"
   xmlns="http://www.w3.org/2000/svg"
   xmlns:svg="http://www.w3.org/2000/svg">
  <sodipodi:namedview
     id="namedview1"
     pagecolor="#505050"
     bordercolor="#ffffff"
     borderopacity="1"
     inkscape:showpageshadow="0"
     inkscape:pageopacity="0"
     inkscape:pagecheckerboard="1"
     inkscape:deskcolor="#505050"
     inkscape:document-units="px"
     inkscape:zoom="0.66903058"
     inkscape:cx="396.84285"
     inkscape:cy="549.30225"
     inkscape:window-width="1920"
     inkscape:window-height="986"
     inkscape:window-x="-11"
     inkscape:window-y="-11"
     inkscape:window-maximized="1"
     inkscape:current-layer="layer1" />
  <defs
     id="defs1" />
  <g
     inkscape:label="Layer 1"
     inkscape:groupmode="layer"
     id="layer1">
    <path
       id="path1"
       style="fill-opacity:1;stroke:none;stroke-width:4.9003"
       d="M 132.29166,0 A 92.604075,92.604234 0 0 0 39.687774,92.604051 92.604075,92.604234 0 0 0 132.29166,185.2081 92.604075,92.604234 0 0 0 224.89556,92.604051 92.604075,92.604234 0 0 0 132.29166,0 Z M 38.561141,214.00014 C 17.198477,214.00014 0,233.69073 0,258.1494 v 255.66096 c 0,24.45866 17.198477,44.14926 38.561141,44.14926 h 27.584691 v 209.33227 c 0,14.6579 11.800172,26.45811 26.458061,26.45811 h 79.375547 c 14.65788,0 26.45805,-11.80021 26.45805,-26.45811 V 557.95962 h 27.58469 c 21.36267,0 38.56115,-19.6906 38.56115,-44.14926 V 258.1494 c 0,-24.45867 -17.19848,-44.14926 -38.56115,-44.14926 z" />
  </g>
</svg>
