<?xml version="1.0" encoding="UTF-8" standalone="no"?>
<svg
   viewBox="0 0 3199.52 5119.9941"
   version="1.1"
   id="svg1"
   sodipodi:docname="person-dress-solid.svg"
   width="3199.52"
   height="5119.9941"
   inkscape:version="1.3.2 (091e20e, 2023-11-25, custom)"
   xmlns:inkscape="http://www.inkscape.org/namespaces/inkscape"
   xmlns:sodipodi="http://sodipodi.sourceforge.net/DTD/sodipodi-0.dtd"
   xmlns="http://www.w3.org/2000/svg"
   xmlns:svg="http://www.w3.org/2000/svg">
  <defs
     id="defs1" />
  <sodipodi:namedview
     id="namedview1"
     pagecolor="#505050"
     bordercolor="#ffffff"
     borderopacity="1"
     inkscape:showpageshadow="0"
     inkscape:pageopacity="0"
     inkscape:pagecheckerboard="1"
     inkscape:deskcolor="#505050"
     inkscape:zoom="0.064823876"
     inkscape:cx="4126.5659"
     inkscape:cy="1488.649"
     inkscape:window-width="1920"
     inkscape:window-height="986"
     inkscape:window-x="-11"
     inkscape:window-y="-11"
     inkscape:window-maximized="1"
     inkscape:current-layer="svg1" />
  <!--!Font Awesome Free 6.7.2 by @fontawesome - https://fontawesome.com License - https://fontawesome.com/license/free Copyright 2025 Fonticons, Inc.-->
  <path
     d="m 1599.76,0 a 479.99947,479.99947 0 1 1 0,959.99894 A 479.99947,479.99947 0 1 1 1599.76,0 Z M 879.7608,3839.9957 H 701.761 c -108.99988,0 -185.9998,-106.9998 -151.99983,-210.9997 L 932.76074,2480.9973 593.76112,3044.9966 C 502.76122,3195.9965 305.76144,3244.9964 154.7616,3153.9965 3.7617674,3062.9966 -45.238179,2865.9968 45.761721,2714.997 L 581.76113,1822.998 C 784.76091,1485.9984 1148.7605,1279.9986 1541.7601,1279.9986 H 1657.76 c 392.9995,0 756.9991,205.9998 959.9989,542.9994 l 535.9994,891.999 c 90.9999,150.9998 42,347.9996 -108.9999,438.9995 -150.9998,90.9999 -347.9996,42 -438.9995,-108.9999 l -338.9996,-562.9993 382.9996,1146.9987 c 34.9999,103.9999 -43,210.9997 -151.9999,210.9997 h -177.9998 v 959.999 c 0,176.9998 -142.9998,319.9996 -319.9996,319.9996 -176.9998,0 -319.9997,-142.9998 -319.9997,-319.9996 v -959.999 h -159.9998 v 959.999 c 0,176.9998 -142.9998,319.9996 -319.9996,319.9996 -176.9998,0 -319.9997,-142.9998 -319.9997,-319.9996 z"
     id="path1"
     style="stroke-width:9.99999" />
</svg>
