<?xml version="1.0" encoding="UTF-8" standalone="no"?>
<!-- Created with Inkscape (http://www.inkscape.org/) -->

<svg
   width="100mm"
   height="300mm"
   viewBox="0 0 100 300"
   version="1.1"
   id="svg1"
   inkscape:version="1.3.2 (091e20e, 2023-11-25, custom)"
   sodipodi:docname="skinny-person.svg"
   xmlns:inkscape="http://www.inkscape.org/namespaces/inkscape"
   xmlns:sodipodi="http://sodipodi.sourceforge.net/DTD/sodipodi-0.dtd"
   xmlns="http://www.w3.org/2000/svg"
   xmlns:svg="http://www.w3.org/2000/svg">
  <sodipodi:namedview
     id="namedview1"
     pagecolor="#505050"
     bordercolor="#ffffff"
     borderopacity="1"
     inkscape:showpageshadow="0"
     inkscape:pageopacity="0"
     inkscape:pagecheckerboard="1"
     inkscape:deskcolor="#505050"
     inkscape:document-units="mm"
     inkscape:zoom="0.66903058"
     inkscape:cx="396.84284"
     inkscape:cy="549.30224"
     inkscape:window-width="1920"
     inkscape:window-height="986"
     inkscape:window-x="-11"
     inkscape:window-y="-11"
     inkscape:window-maximized="1"
     inkscape:current-layer="layer1" />
  <defs
     id="defs1" />
  <g
     inkscape:label="Layer 1"
     inkscape:groupmode="layer"
     id="layer1">
    <path
       id="path1"
       style="fill-opacity:1;stroke:none;stroke-width:1.85208"
       d="M 50.000049 0 A 35 35 0 0 0 15.000118 34.999931 A 35 35 0 0 0 50.000049 69.999862 A 35 35 0 0 0 84.99998 34.999931 A 35 35 0 0 0 50.000049 0 z M 14.574304 80.881885 C 6.5002183 80.881885 0 88.323992 0 97.568205 L 0 194.1959 C 1.2533172e-15 203.44011 6.5002183 210.88222 14.574304 210.88222 L 25.000024 210.88222 L 25.000024 289.99987 C 25.000024 295.53986 29.459936 299.99978 34.999931 299.99978 L 65.000167 299.99978 C 70.540161 299.99978 75.000073 295.53986 75.000073 289.99987 L 75.000073 210.88222 L 85.425793 210.88222 C 93.499879 210.88222 100.0001 203.44011 100.0001 194.1959 L 100.0001 97.568205 C 100.0001 88.323992 93.499879 80.881885 85.425793 80.881885 L 14.574304 80.881885 z " />
  </g>
</svg>
