<?xml version="1.0" encoding="UTF-8" standalone="no"?>
<!-- Created with Inkscape (http://www.inkscape.org/) -->

<svg
   width="50"
   height="300"
   viewBox="0 0 13.229166 79.375"
   version="1.1"
   id="svg1"
   inkscape:version="1.3.2 (091e20e, 2023-11-25, custom)"
   sodipodi:docname="person-super-narrow2.svg"
   xmlns:inkscape="http://www.inkscape.org/namespaces/inkscape"
   xmlns:sodipodi="http://sodipodi.sourceforge.net/DTD/sodipodi-0.dtd"
   xmlns="http://www.w3.org/2000/svg"
   xmlns:svg="http://www.w3.org/2000/svg">
  <sodipodi:namedview
     id="namedview1"
     pagecolor="#505050"
     bordercolor="#ffffff"
     borderopacity="1"
     inkscape:showpageshadow="0"
     inkscape:pageopacity="0"
     inkscape:pagecheckerboard="1"
     inkscape:deskcolor="#505050"
     inkscape:document-units="px"
     inkscape:zoom="0.98898724"
     inkscape:cx="126.89749"
     inkscape:cy="199.69924"
     inkscape:window-width="1920"
     inkscape:window-height="986"
     inkscape:window-x="-11"
     inkscape:window-y="-11"
     inkscape:window-maximized="1"
     inkscape:current-layer="layer1" />
  <defs
     id="defs1" />
  <g
     inkscape:label="Layer 1"
     inkscape:groupmode="layer"
     id="layer1">
    <path
       id="path2"
       style="stroke-width:0.264583"
       d="M 11.90625,7.9375 A 5.2916665,5.2916665 0 0 1 6.614583,13.229167 5.2916665,5.2916665 0 0 1 1.3229165,7.9375 5.2916665,5.2916665 0 0 1 6.614583,2.6458335 5.2916665,5.2916665 0 0 1 11.90625,7.9375 Z M 2.6458333,15.875 h 7.9374997 c 1.465791,0 2.645833,1.180042 2.645833,2.645833 v 34.395834 c 0,1.465791 -1.180042,2.645833 -2.645833,2.645833 H 2.6458333 C 1.1800416,55.5625 0,54.382458 0,52.916667 V 18.520833 C 0,17.055042 1.1800416,15.875 2.6458333,15.875 Z m 3.3072915,37.041664 h 1.3229165 c 1.4657916,0 2.6458332,1.180042 2.6458332,2.645833 v 21.166666 c 0,1.465792 -1.1800416,2.645833 -2.6458332,2.645833 H 5.9531248 c -1.4657917,0 -2.6458333,-1.180041 -2.6458333,-2.645833 V 55.562497 c 0,-1.465791 1.1800416,-2.645833 2.6458333,-2.645833 z" />
  </g>
</svg>
