<?xml version="1.0" encoding="UTF-8" standalone="no"?>
<svg
   viewBox="0 0 50 79.787231"
   version="1.1"
   id="svg1"
   sodipodi:docname="person-dress-solid.svg"
   width="50"
   height="79.787231"
   inkscape:version="1.3.2 (091e20e, 2023-11-25, custom)"
   xmlns:inkscape="http://www.inkscape.org/namespaces/inkscape"
   xmlns:sodipodi="http://sodipodi.sourceforge.net/DTD/sodipodi-0.dtd"
   xmlns="http://www.w3.org/2000/svg"
   xmlns:svg="http://www.w3.org/2000/svg">
  <defs
     id="defs1" />
  <sodipodi:namedview
     id="namedview1"
     pagecolor="#505050"
     bordercolor="#ffffff"
     borderopacity="1"
     inkscape:showpageshadow="0"
     inkscape:pageopacity="0"
     inkscape:pagecheckerboard="1"
     inkscape:deskcolor="#505050"
     inkscape:zoom="0.85871012"
     inkscape:cx="425.6384"
     inkscape:cy="410.49941"
     inkscape:window-width="1920"
     inkscape:window-height="986"
     inkscape:window-x="-11"
     inkscape:window-y="-11"
     inkscape:window-maximized="1"
     inkscape:current-layer="svg1" />
  <!--!Font Awesome Free 6.7.2 by @fontawesome - https://fontawesome.com License - https://fontawesome.com/license/free Copyright 2025 Fonticons, Inc.-->
  <path
     d="M 25,0 A 7.5011182,7.4800535 0 1 1 25,14.960107 7.5011182,7.4800535 0 1 1 25,0 Z M 13.748325,59.840427 h -2.781664 c -1.7033789,0 -2.9066832,-1.667429 -2.3753539,-3.288107 L 14.576573,38.662527 9.2789092,47.451589 C 7.8568225,49.80469 4.7782392,50.568277 2.4185129,49.150184 0.05878644,47.732091 -0.70695259,44.662152 0.71513416,42.309051 L 9.0913813,28.40862 C 12.263729,23.157 17.952075,19.946809 24.093616,19.946809 h 1.81277 c 6.141537,0 11.829886,3.210191 15.002234,8.461811 l 8.376245,13.900431 c 1.422088,2.353101 0.656349,5.42304 -1.703378,6.841133 -2.359726,1.418093 -5.438311,0.654506 -6.860396,-1.698595 l -5.297665,-8.773479 5.985269,17.87421 c 0.546955,1.620678 -0.671976,3.288107 -2.375357,3.288107 h -2.781662 v 14.960106 c 0,2.758269 -2.234707,4.986702 -5.000745,4.986702 -2.766037,0 -5.000745,-2.228433 -5.000745,-4.986702 V 59.840427 h -2.500372 v 14.960106 c 0,2.758269 -2.234708,4.986702 -5.000743,4.986702 -2.766038,0 -5.000746,-2.228433 -5.000746,-4.986702 z"
     id="path1"
     style="stroke-width:0.156053" />
</svg>
