<?xml version="1.0" encoding="UTF-8" standalone="no"?>
<!-- Created with Inkscape (http://www.inkscape.org/) -->

<svg
   width="50mm"
   height="57.735027mm"
   viewBox="0 0 49.999999 57.735029"
   version="1.1"
   id="svg1"
   inkscape:version="1.3.2 (091e20e, 2023-11-25, custom)"
   sodipodi:docname="hex.svg"
   xmlns:inkscape="http://www.inkscape.org/namespaces/inkscape"
   xmlns:sodipodi="http://sodipodi.sourceforge.net/DTD/sodipodi-0.dtd"
   xmlns="http://www.w3.org/2000/svg"
   xmlns:svg="http://www.w3.org/2000/svg">
  <sodipodi:namedview
     id="namedview1"
     pagecolor="#505050"
     bordercolor="#ffffff"
     borderopacity="1"
     inkscape:showpageshadow="0"
     inkscape:pageopacity="0"
     inkscape:pagecheckerboard="1"
     inkscape:deskcolor="#505050"
     inkscape:document-units="mm"
     inkscape:zoom="0.90288415"
     inkscape:cx="222.61992"
     inkscape:cy="268.58374"
     inkscape:window-width="1920"
     inkscape:window-height="986"
     inkscape:window-x="-11"
     inkscape:window-y="-11"
     inkscape:window-maximized="1"
     inkscape:current-layer="layer3" />
  <defs
     id="defs1" />
  <g
     inkscape:groupmode="layer"
     id="layer3"
     inkscape:label="Background"
     style="display:inline"
     transform="translate(-37.423432,-104.22452)">
    <path
       sodipodi:type="star"
       style="fill:#333333;fill-opacity:1;stroke:#555555;stroke-width:15.1181;stroke-dasharray:none;stroke-opacity:1"
       id="Hex"
       inkscape:flatsided="true"
       sodipodi:sides="6"
       sodipodi:cx="59.187099"
       sodipodi:cy="-14.268319"
       sodipodi:r1="204.20032"
       sodipodi:r2="176.84267"
       sodipodi:arg1="0.52359878"
       sodipodi:arg2="1.0471976"
       inkscape:rounded="0"
       inkscape:randomized="0"
       d="M 236.02976,87.83184 59.187099,189.932 -117.65556,87.831839 l 0,-204.200319 176.84266,-102.10016 176.84266,102.10016 z"
       transform="matrix(0.13557358,0,0,0.13557358,54.399225,135.02644)" />
  </g>
  <g
     inkscape:label="Layer 1"
     inkscape:groupmode="layer"
     id="layer1"
     transform="translate(-37.423432,-104.22452)">
    <g
       id="People"
       transform="matrix(0.51240408,0,0,0.51240408,18.247513,50.819451)">
      <path
         d="m 55.542875,132.62764 a 3.9993464,3.9252601 0 1 1 7.998689,0 3.9993464,3.9252601 0 1 1 -7.998689,0 z m 3.332792,24.85998 v 10.46737 c 0,1.44743 -1.191475,2.61683 -2.666234,2.61683 -1.474758,0 -2.666233,-1.1694 -2.666233,-2.61683 V 149.7107 l -2.382938,3.89255 c -0.758211,1.23482 -2.399612,1.63552 -3.657739,0.89136 -1.258127,-0.74417 -1.666391,-2.35515 -0.90819,-3.58998 l 4.85754,-7.93229 c 1.449769,-2.36334 4.049339,-3.81078 6.857214,-3.81078 h 2.474602 c 2.807875,0 5.407445,1.44744 6.857204,3.81078 l 4.85754,7.93229 c 0.758211,1.23483 0.349947,2.84581 -0.90818,3.58998 -1.258127,0.74416 -2.899528,0.34346 -3.657739,-0.89136 l -2.391275,-3.89255 v 18.24429 c 0,1.44743 -1.191474,2.61683 -2.666222,2.61683 -1.47477,0 -2.666234,-1.1694 -2.666234,-2.61683 v -10.46737 z"
         id="LeftPerson"
         style="fill:#ffb521;fill-opacity:1;stroke-width:0.0825444" />
      <path
         d="m 108.8762,132.62764 a 3.9993464,3.9252601 0 1 1 7.99869,0 3.9993464,3.9252601 0 1 1 -7.99869,0 z m 3.3328,24.85998 v 10.46737 c 0,1.44743 -1.19148,2.61683 -2.66624,2.61683 -1.47476,0 -2.66623,-1.1694 -2.66623,-2.61683 V 149.7107 l -2.38294,3.89255 c -0.75821,1.23482 -2.39961,1.63552 -3.65774,0.89136 -1.258126,-0.74417 -1.666389,-2.35515 -0.908189,-3.58998 l 4.857539,-7.93229 c 1.44977,-2.36334 4.04934,-3.81078 6.85722,-3.81078 h 2.4746 c 2.80787,0 5.40744,1.44744 6.8572,3.81078 l 4.85754,7.93229 c 0.75821,1.23483 0.34995,2.84581 -0.90818,3.58998 -1.25812,0.74416 -2.89953,0.34346 -3.65774,-0.89136 l -2.39127,-3.89255 v 18.24429 c 0,1.44743 -1.19148,2.61683 -2.66622,2.61683 -1.47477,0 -2.66624,-1.1694 -2.66624,-2.61683 v -10.46737 z"
         id="RightPerson"
         style="fill:#aaaaaa;fill-opacity:1;stroke-width:0.0825444" />
      <g
         id="MiddlePerson">
        <path
           id="MiddlePersonLeft"
           style="fill:#ffb521;fill-opacity:1;stroke-width:0.0825444"
           d="m 83.261605,130.03394 a 3.9993464,3.9252601 0 0 0 -1.052012,2.59385 3.9993464,3.9252601 0 0 0 1.052012,2.5933 z m 0,9.31394 c -2.123438,0.45845 -3.994743,1.7526 -5.143174,3.62471 l -4.857629,7.93185 c -0.7582,1.23483 -0.349721,2.84603 0.908405,3.5902 1.258126,0.74417 2.899344,0.34367 3.657554,-0.89115 l 2.382893,-3.89301 v 18.24436 c 0,1.44743 1.191456,2.61723 2.666213,2.61723 0.131284,0 0.259585,-0.0127 0.385738,-0.0306 z" />
        <path
           id="MiddlePersonRight"
           style="fill:#66ff25;fill-opacity:1;stroke-width:0.0825444"
           d="m 86.208911,128.69861 a 3.9993464,3.9252601 0 0 0 -2.947306,1.33533 v 5.18715 a 3.9993464,3.9252601 0 0 0 6.946626,-2.5933 3.9993464,3.9252601 0 0 0 -3.99932,-3.92918 z m -1.232914,10.4628 c -0.58362,0 -1.157225,0.0661 -1.714392,0.18647 v 31.19358 c 1.290971,-0.18323 2.280476,-1.26804 2.280476,-2.58662 v -10.46725 h 1.333105 v 10.46725 c 0,1.44743 1.192002,2.61723 2.66677,2.61723 1.474747,0 2.666213,-1.1698 2.666213,-2.61723 v -18.24436 l 2.391243,3.89301 c 0.75821,1.23482 2.399428,1.63532 3.657554,0.89115 1.258128,-0.74417 1.666615,-2.35537 0.908404,-3.5902 l -4.857628,-7.93185 c -1.449758,-2.36333 -4.049694,-3.81118 -6.857566,-3.81118 z" />
      </g>
    </g>
    <g
       id="Title"
       transform="matrix(0.51240408,0,0,0.51240408,18.247513,50.819451)">
      <path
         id="TitleLeft"
         style="font-size:19.7556px;font-family:'Berlin Sans FB';-inkscape-font-specification:'Berlin Sans FB';text-align:center;text-anchor:middle;fill:#ffb521;fill-opacity:1;stroke-width:4.53602"
         d="m 60.648907,174.50208 c -0.342753,0 -0.85688,0.0142 -1.542386,0.0433 -0.685507,0.0291 -1.199635,0.044 -1.542388,0.044 -0.401094,0 -0.999478,-0.003 -1.794373,-0.0113 -0.787603,-0.008 -1.378303,-0.0117 -1.772105,-0.0117 -0.196865,0 -0.291474,0.0804 -0.284216,0.24085 l 0.01111,0.16409 c 0.167731,2.61075 0.2514,5.05398 0.2514,7.32927 0,0.80218 -0.03666,2.00547 -0.109579,3.60985 -0.06564,1.60436 -0.09845,2.8038 -0.09845,3.5987 0,0.22607 0.09136,0.3393 0.273668,0.3393 0.123974,0 0.313777,-0.0113 0.569019,-0.0328 0.255242,-0.0219 0.4483,-0.0328 0.579567,-0.0328 0.153146,0 0.382862,0.018 0.689152,0.0545 0.313582,0.0291 0.547141,0.0439 0.700286,0.0439 0.138561,0 0.207449,-0.0618 0.207449,-0.18576 0,-0.3865 -0.02514,-0.96627 -0.07618,-1.73929 -0.04376,-0.773 -0.06564,-1.35276 -0.06564,-1.73928 0,-0.29899 0.116486,-0.4489 0.349849,-0.4489 0.422973,0 1.053586,0.0186 1.892238,0.0551 0.845944,0.0291 1.477144,0.0433 1.892823,0.0433 1.691888,0 3.015494,-0.52833 3.970827,-1.58575 0.926055,-1.02815 1.388744,-2.39917 1.388852,-4.11265 v -5.8e-4 c -1.25e-4,-1.61141 -0.506571,-2.95286 -1.520119,-4.02474 -1.035553,-1.0939 -2.359158,-1.64084 -3.970828,-1.64084 z m -0.689151,2.17587 c 1.079307,0 1.924857,0.34295 2.537438,1.02846 0.590702,0.65634 0.886053,1.53145 0.886053,2.62533 0,1.02826 -0.26579,1.84484 -0.798151,2.45012 -0.568825,0.63447 -1.364108,0.95169 -2.385075,0.95169 -1.823155,0 -2.93508,-0.0399 -3.336174,-0.12013 -0.160438,-0.0365 -0.240851,-0.0873 -0.240851,-0.15295 0,-0.30629 -0.01089,-0.76572 -0.03282,-1.3783 -0.01458,-0.61259 -0.02168,-1.07201 -0.02168,-1.3783 0,-2.42115 0.02572,-3.67587 0.07677,-3.76338 0.02917,-0.0583 0.535614,-0.11627 1.520118,-0.17464 0.860529,-0.0584 1.458912,-0.0879 1.794374,-0.0879 z m 12.360781,2.32999 c -1.509572,0 -2.778483,0.54695 -3.806744,1.64084 -0.999088,1.07202 -1.498436,2.37049 -1.498436,3.89465 0,1.52416 0.499348,2.82204 1.498436,3.89406 1.020968,1.10848 2.289879,1.66252 3.806744,1.66252 1.509573,0 2.774643,-0.55789 3.795609,-1.67366 0.999089,-1.07931 1.499022,-2.38104 1.499022,-3.9052 0,-1.51686 -0.503188,-2.80765 -1.50957,-3.87237 -1.020967,-1.09389 -2.282781,-1.64084 -3.785061,-1.64084 z m 9.057424,0.0657 c -0.08751,0 -0.488409,0.0657 -1.203086,0.19689 -0.532362,0.0657 -0.937101,0.10615 -1.21422,0.12072 -0.07293,0.0219 -0.10959,0.0727 -0.10959,0.15295 0,0.0291 0.0077,0.0877 0.02227,0.17522 0.218779,1.50227 0.328167,3.11029 0.328167,4.82407 0,0.93345 -0.0077,2.33363 -0.02227,4.20054 -0.01458,1.86691 -0.02168,3.26709 -0.02168,4.20054 0,0.16777 0.08367,0.26237 0.2514,0.28422 0.204194,0.0291 0.868209,0.044 1.991274,0.044 0.16773,0 0.251399,-0.11708 0.251399,-0.35044 l 0.01111,-3.08477 c 0,-0.77301 0.0033,-1.181 0.01055,-1.22477 0.01458,-0.0948 0.04356,-0.15337 0.08732,-0.17522 0.306291,0.2917 0.61258,0.57996 0.918869,0.86437 0.136163,0.11272 0.280757,0.20525 0.426032,0.29535 v -2.13719 c -0.216048,-0.15557 -0.417282,-0.34504 -0.600663,-0.57606 -0.510484,-0.65634 -0.76592,-1.42915 -0.76592,-2.31884 0,-0.87512 0.247752,-1.64084 0.743651,-2.29718 0.188467,-0.25469 0.397106,-0.46247 0.622932,-0.62821 v -1.99831 c -0.398725,0.24748 -0.795922,0.57064 -1.191365,0.97455 -0.06564,0.0729 -0.124173,0.12435 -0.175218,0.15353 -0.04376,-0.0583 -0.06564,-0.11685 -0.06564,-0.17522 -0.01458,-0.28441 -0.03262,-0.57266 -0.0545,-0.86437 -0.03647,-0.43754 -0.116878,-0.65633 -0.240852,-0.65633 z m -9.057424,2.19872 c 0.875115,0 1.597081,0.332 2.165905,0.99563 0.546948,0.62717 0.820419,1.38579 0.820419,2.2755 0,0.87511 -0.273471,1.63315 -0.820419,2.2749 -0.576116,0.67822 -1.298083,1.01732 -2.165905,1.01732 -0.860529,0 -1.582496,-0.3391 -2.165905,-1.01732 -0.554239,-0.64175 -0.831554,-1.39979 -0.831554,-2.2749 0,-0.88971 0.273474,-1.65218 0.820419,-2.28663 0.576118,-0.65634 1.301925,-0.9845 2.17704,-0.9845 z" />
      <path
         id="TitleRight"
         style="font-size:19.7556px;font-family:'Berlin Sans FB';-inkscape-font-specification:'Berlin Sans FB';text-align:center;text-anchor:middle;fill:#999999;fill-opacity:1;stroke-width:4.53602"
         d="m 101.15591,174.50149 c -0.16043,0 -0.24085,0.0727 -0.24085,0.21859 0,0.56154 0.018,1.40767 0.0545,2.53802 0.0365,1.13037 0.0551,1.97975 0.0551,2.54857 0,0.24083 -0.27222,0.90407 -0.79463,1.95671 v 5.49856 c 0.49817,-0.92804 0.99616,-1.8561 1.49433,-2.78415 1.42936,-2.69826 2.14423,-4.20074 2.14423,-4.50704 h -5.9e-4 c 0,-0.53964 -0.007,-1.34528 -0.0217,-2.4173 -0.0146,-1.0793 -0.0216,-1.88879 -0.0216,-2.42844 0,-0.32814 0.003,-0.46709 0.0113,-0.41606 -0.0219,-0.13857 -0.11318,-0.20746 -0.27367,-0.20746 -0.13128,0 -0.33143,0.0102 -0.60125,0.0322 -0.26254,0.0219 -0.45943,0.0328 -0.59071,0.0328 -0.13126,0 -0.332,-0.0113 -0.60184,-0.0328 -0.26982,-0.0219 -0.47382,-0.0322 -0.61238,-0.0322 z m 5.85193,0.8966 c -0.40838,0 -0.75842,0.12417 -1.05014,0.37213 -0.31357,0.26252 -0.46997,0.59453 -0.46997,0.99563 0,0.89699 0.50644,1.34549 1.52011,1.34549 0.99909,0 1.49903,-0.4485 1.49903,-1.34549 0,-0.4011 -0.14989,-0.72925 -0.44889,-0.9845 -0.29171,-0.25524 -0.64174,-0.38326 -1.05014,-0.38326 z m 3.99368,4.1021 c -0.20419,0 -0.30647,0.0438 -0.30647,0.13127 0,0.20419 -0.0471,0.51816 -0.14182,0.94113 -0.0875,0.41568 -0.13128,0.72908 -0.13128,0.94056 0,0.15313 0.058,0.22971 0.17464,0.22971 h 4.82406 c -1.29808,1.53146 -2.30062,2.66526 -3.00801,3.40182 -1.40017,1.50956 -2.18068,2.33766 -2.34112,2.48351 -0.15314,0.13857 -0.22971,0.2589 -0.22971,0.36099 0,0.0583 -0.003,0.14911 -0.0113,0.27308 -0.008,0.1167 -0.0113,0.20806 -0.0113,0.27367 0,0.46673 0.0508,0.87532 0.15294,1.22536 0.0438,0.13127 0.14221,0.1969 0.29535,0.1969 -0.15314,0 0.31013,-0.0366 1.38944,-0.10955 0.86053,-0.0584 1.64429,-0.0873 2.35168,-0.0873 0.91157,0 1.61166,0.007 2.10027,0.0217 0.18962,0.007 0.52872,0.0291 1.01732,0.0657 0.43026,0.0292 0.77322,0.044 1.02846,0.044 0.10206,0 0.16771,-0.128 0.1969,-0.38325 0.0146,-0.12398 0.0802,-0.44446 0.19689,-0.96223 0.10943,-0.48133 0.16408,-0.74062 0.16408,-0.77706 h 5.9e-4 c 0,-0.0657 -0.0837,-0.0984 -0.2514,-0.0984 -1.33455,0 -3.21603,0.0328 -5.64447,0.0984 1.54603,-1.71376 2.70171,-3.00455 3.46743,-3.87238 1.18867,-1.33454 1.81929,-2.05267 1.89224,-2.15477 0.0875,-0.13856 0.13127,-0.75881 0.13127,-1.86 0,-0.1313 -0.0907,-0.20787 -0.27308,-0.22972 -0.25524,-0.0291 -1.38195,-0.0433 -3.38013,-0.0433 -0.40839,0 -1.01771,-0.018 -1.82719,-0.0545 -0.80948,-0.0364 -1.41822,-0.0551 -1.82661,-0.0551 z m -5.21903,0.0222 c -0.15315,0 -0.22972,0.0618 -0.22972,0.18577 0,0.56882 0.0405,1.42206 0.12072,2.55971 0.0875,1.13765 0.13127,1.99088 0.13127,2.55971 0,0.51048 -0.0147,1.27236 -0.044,2.28604 -0.0219,1.00637 -0.0328,1.76116 -0.0328,2.26434 0,0.29901 0.0765,0.44889 0.22971,0.44889 h 2.13309 c 0.13127,0 0.19691,-0.0766 0.19691,-0.22972 0,-0.52506 -0.0113,-1.31651 -0.0328,-2.37393 -0.0219,-1.06473 -0.0328,-1.86328 -0.0328,-2.39562 0,-0.56883 0.0328,-1.41821 0.0984,-2.54858 0.0729,-1.13764 0.10954,-1.98763 0.10954,-2.54916 0,-0.13856 -0.0624,-0.20745 -0.18635,-0.20745 -0.13856,0 -0.3464,0.018 -0.62352,0.0546 -0.26983,0.0364 -0.47382,0.0545 -0.61239,0.0545 -0.13855,0 -0.34639,-0.018 -0.62351,-0.0545 -0.26982,-0.0364 -0.47058,-0.0546 -0.60184,-0.0546 z" />
      <path
         id="TitleMiddle"
         style="fill:#66ff25;fill-opacity:1;stroke:none;stroke-width:4.53602;stroke-linejoin:miter;stroke-dasharray:none;stroke-opacity:1"
         d="m 91.726372,174.50149 c -0.175023,0 -0.262534,0.13453 -0.262534,0.40435 0,0.57612 -0.02187,1.44414 -0.06564,2.60366 -0.03646,1.15224 -0.05509,2.01641 -0.05509,2.59253 0,0.25524 0.732906,1.7648 2.198723,4.5287 1.713765,3.22333 2.581778,4.85706 2.603658,4.90083 0.102094,0.2115 0.204388,0.31704 0.306485,0.31704 h 2.198721 c 0.131267,0 0.251595,-0.10558 0.360985,-0.31704 0.406117,-0.75655 0.812206,-1.51307 1.21833,-2.26962 v -5.49856 c -0.2053,0.41365 -0.440113,0.87327 -0.726079,1.41229 -0.700092,1.31996 -1.349328,2.49042 -1.947323,3.51139 -2.260712,-3.92343 -3.391259,-6.13309 -3.391259,-6.62899 0,-0.59798 0.03666,-1.49114 0.109579,-2.67983 0.08022,-1.1887 0.120133,-2.07859 0.120133,-2.66929 0,-0.13857 -0.08367,-0.20746 -0.2514,-0.20746 -0.131267,0 -0.332008,0.0102 -0.601836,0.0322 -0.269826,0.0219 -0.469982,0.0328 -0.60125,0.0328 -0.138559,0 -0.343143,-0.0113 -0.61297,-0.0328 -0.262534,-0.0219 -0.462689,-0.0322 -0.60125,-0.0322 z m -6.7163,4.5504 c -0.638928,0 -1.273828,0.19808 -1.904544,0.58953 v 1.99831 c 0.420797,-0.30884 0.905149,-0.46589 1.455658,-0.46589 0.860528,0 1.578654,0.35389 2.154771,1.06127 0.546946,0.66363 0.820419,1.4332 0.820419,2.30832 0,0.84594 -0.262534,1.61166 -0.787602,2.29716 -0.568824,0.73656 -1.268913,1.10464 -2.100272,1.10464 -0.584414,0 -1.097464,-0.16442 -1.542974,-0.48522 v 2.13719 c 0.578327,0.3587 1.225174,0.54675 1.947909,0.54675 1.451231,0 2.665448,-0.57266 3.64266,-1.7176 0.933455,-1.0866 1.399986,-2.36645 1.399986,-3.83956 h 5.85e-4 c 0,-1.47311 -0.478055,-2.75296 -1.433388,-3.83956 -0.991797,-1.13035 -2.209268,-1.69534 -3.653208,-1.69534 z" />
    </g>
  </g>
</svg>
