<?xml version="1.0" encoding="UTF-8" standalone="no"?>
<!-- Created with Inkscape (http://www.inkscape.org/) -->

<svg
   width="50"
   height="290"
   viewBox="0 0 13.229166 76.729167"
   version="1.1"
   id="svg1"
   inkscape:version="1.3.2 (091e20e, 2023-11-25, custom)"
   sodipodi:docname="person-dress-super-narrow.svg"
   xmlns:inkscape="http://www.inkscape.org/namespaces/inkscape"
   xmlns:sodipodi="http://sodipodi.sourceforge.net/DTD/sodipodi-0.dtd"
   xmlns="http://www.w3.org/2000/svg"
   xmlns:svg="http://www.w3.org/2000/svg">
  <sodipodi:namedview
     id="namedview1"
     pagecolor="#505050"
     bordercolor="#ffffff"
     borderopacity="1"
     inkscape:showpageshadow="0"
     inkscape:pageopacity="0"
     inkscape:pagecheckerboard="1"
     inkscape:deskcolor="#505050"
     inkscape:document-units="px"
     inkscape:zoom="1.9779745"
     inkscape:cx="-73.5601"
     inkscape:cy="158.49547"
     inkscape:window-width="1920"
     inkscape:window-height="986"
     inkscape:window-x="-11"
     inkscape:window-y="-11"
     inkscape:window-maximized="1"
     inkscape:current-layer="layer1" />
  <defs
     id="defs1" />
  <g
     inkscape:label="Layer 1"
     inkscape:groupmode="layer"
     id="layer1"
     transform="translate(0,-2.6458335)">
    <path
       id="rect3"
       style="fill-opacity:1;stroke-width:0.264583"
       d="M 6.6145832 2.6458335 A 5.2916665 5.2916665 0 0 0 1.3229166 7.9375 A 5.2916665 5.2916665 0 0 0 6.6145832 13.229167 A 5.2916665 5.2916665 0 0 0 11.90625 7.9375 A 5.2916665 5.2916665 0 0 0 6.6145832 2.6458335 z M 5.9531249 15.875 C 4.4873363 15.875 3.3072916 17.055045 3.3072916 18.520833 L 3.3072916 40.25594 L 0.53485106 51.202558 L 0.5705078 51.285758 A 2.6458333 2.6458333 0 0 0 0 52.916666 A 2.6458333 2.6458333 0 0 0 2.6458333 55.562499 A 2.6458333 2.6458333 0 0 0 3.3072916 55.463797 L 3.3072916 76.729165 C 3.3072916 78.194954 4.4873363 79.374998 5.9531249 79.374998 L 7.2760415 79.374998 C 8.741831 79.374998 9.9218748 78.194954 9.9218748 76.729165 L 9.9218748 55.463797 A 2.6458333 2.6458333 0 0 0 10.583333 55.562499 A 2.6458333 2.6458333 0 0 0 13.229166 52.916666 A 2.6458333 2.6458333 0 0 0 12.847278 51.547757 L 9.9218748 39.219311 L 9.9218748 18.520833 C 9.9218748 17.055045 8.741831 15.875 7.2760415 15.875 L 5.9531249 15.875 z " />
  </g>
</svg>
