<?xml version="1.0" encoding="UTF-8" standalone="no"?>
<!-- Created with Inkscape (http://www.inkscape.org/) -->

<svg
   width="100"
   height="300"
   viewBox="0 0 26.458332 79.375"
   version="1.1"
   id="svg1"
   inkscape:version="1.3.2 (091e20e, 2023-11-25, custom)"
   sodipodi:docname="person-narrow.svg"
   xmlns:inkscape="http://www.inkscape.org/namespaces/inkscape"
   xmlns:sodipodi="http://sodipodi.sourceforge.net/DTD/sodipodi-0.dtd"
   xmlns="http://www.w3.org/2000/svg"
   xmlns:svg="http://www.w3.org/2000/svg">
  <sodipodi:namedview
     id="namedview1"
     pagecolor="#505050"
     bordercolor="#ffffff"
     borderopacity="1"
     inkscape:showpageshadow="0"
     inkscape:pageopacity="0"
     inkscape:pagecheckerboard="1"
     inkscape:deskcolor="#505050"
     inkscape:document-units="px"
     inkscape:zoom="0.66903058"
     inkscape:cx="396.0955"
     inkscape:cy="549.30225"
     inkscape:window-width="1920"
     inkscape:window-height="986"
     inkscape:window-x="-11"
     inkscape:window-y="-11"
     inkscape:window-maximized="1"
     inkscape:current-layer="layer1" />
  <defs
     id="defs1" />
  <g
     inkscape:label="Layer 1"
     inkscape:groupmode="layer"
     id="layer1">
    <path
       id="path1"
       style="fill-opacity:1;stroke:none;stroke-width:0.49003"
       d="M 13.229166,0 A 9.2604074,9.2604232 0 0 0 3.9687773,9.2604048 9.2604074,9.2604232 0 0 0 13.229166,18.52081 9.2604074,9.2604232 0 0 0 22.489555,9.2604048 9.2604074,9.2604232 0 0 0 13.229166,0 Z M 3.8561141,21.400013 C 1.7198477,21.400013 0,23.369073 0,25.814939 v 25.566096 c 0,2.445866 1.7198477,4.414926 3.8561141,4.414926 H 6.614583 v 20.933227 c 0,1.46579 1.1800172,2.64581 2.6458062,2.64581 h 7.9375548 c 1.465788,0 2.645805,-1.18002 2.645805,-2.64581 V 55.795961 h 2.758468 c 2.136268,0 3.856116,-1.96906 3.856116,-4.414926 V 25.814939 c 0,-2.445866 -1.719848,-4.414926 -3.856116,-4.414926 z" />
  </g>
</svg>
