<?xml version="1.0" encoding="UTF-8" standalone="no"?>
<svg
   viewBox="0 0 188 300.00671"
   version="1.1"
   id="svg1"
   sodipodi:docname="person-solid.svg"
   width="188"
   height="300.00671"
   inkscape:version="1.3.2 (091e20e, 2023-11-25, custom)"
   xmlns:inkscape="http://www.inkscape.org/namespaces/inkscape"
   xmlns:sodipodi="http://sodipodi.sourceforge.net/DTD/sodipodi-0.dtd"
   xmlns="http://www.w3.org/2000/svg"
   xmlns:svg="http://www.w3.org/2000/svg">
  <defs
     id="defs1" />
  <sodipodi:namedview
     id="namedview1"
     pagecolor="#505050"
     bordercolor="#ffffff"
     borderopacity="1"
     inkscape:showpageshadow="0"
     inkscape:pageopacity="0"
     inkscape:pagecheckerboard="1"
     inkscape:deskcolor="#505050"
     inkscape:zoom="1.037182"
     inkscape:cx="214.04151"
     inkscape:cy="263.69528"
     inkscape:window-width="1920"
     inkscape:window-height="986"
     inkscape:window-x="-11"
     inkscape:window-y="-11"
     inkscape:window-maximized="1"
     inkscape:current-layer="svg1" />
  <!--!Font Awesome Free 6.7.2 by @fontawesome - https://fontawesome.com License - https://fontawesome.com/license/free Copyright 2025 Fonticons, Inc.-->
  <path
     d="m 65.775247,28.14003 a 28.195386,28.12414 0 1 1 56.390763,0 28.195386,28.12414 0 1 1 -56.390763,0 z M 89.2714,206.25959 v 74.9977 c 0,10.37078 -8.399877,18.74942 -18.796924,18.74942 -10.397051,0 -18.796928,-8.37864 -18.796928,-18.74942 V 150.53863 L 34.877797,178.42841 C 29.532421,187.27579 17.960565,190.1468 9.0907662,184.81493 0.22096786,179.48306 -2.657311,167.94044 2.6880642,159.09306 L 36.933711,102.25886 C 47.154539,85.325779 65.481546,74.955007 85.277051,74.955007 h 17.445889 c 19.79551,0 38.12251,10.370772 48.34334,27.303853 l 34.24566,56.8342 c 5.34537,8.84738 2.46709,20.39 -6.40271,25.72187 -8.8698,5.33187 -20.44166,2.46086 -25.78704,-6.38652 L 136.2637,150.53863 v 130.71866 c 0,10.37078 -8.39987,18.74942 -18.79691,18.74942 -10.39705,0 -18.796932,-8.37864 -18.796932,-18.74942 v -74.9977 z"
     id="path1"
     style="stroke-width:0.586661" />
</svg>
